<mxfile host="app.diagrams.net" agent="Mozilla/5.0 (Windows NT 10.0; Win64; x64) AppleWebKit/537.36 (KHTML, like Gecko) Chrome/127.0.0.0 Safari/537.36" version="24.7.7">
  <diagram name="Page-1" id="93_5bi3Yo0tV4qI6xVnK">
    <mxGraphModel dx="1050" dy="530" grid="1" gridSize="10" guides="1" tooltips="1" connect="1" arrows="1" fold="1" page="1" pageScale="1" pageWidth="2339" pageHeight="3300" math="0" shadow="0">
      <root>
        <mxCell id="0" />
        <mxCell id="1" parent="0" />
        <mxCell id="EkXWdGJMB2mvaw71ddWZ-5" style="edgeStyle=orthogonalEdgeStyle;rounded=0;orthogonalLoop=1;jettySize=auto;html=1;entryX=0.25;entryY=1;entryDx=0;entryDy=0;strokeWidth=5;" edge="1" parent="1" source="EkXWdGJMB2mvaw71ddWZ-2" target="EkXWdGJMB2mvaw71ddWZ-4">
          <mxGeometry relative="1" as="geometry">
            <Array as="points">
              <mxPoint x="76" y="400" />
              <mxPoint x="76" y="400" />
            </Array>
          </mxGeometry>
        </mxCell>
        <mxCell id="EkXWdGJMB2mvaw71ddWZ-2" value="" style="outlineConnect=0;dashed=0;verticalLabelPosition=bottom;verticalAlign=top;align=center;html=1;shape=mxgraph.aws3.user;fillColor=#9999FF;gradientColor=none;" vertex="1" parent="1">
          <mxGeometry x="57" y="440" width="45" height="63" as="geometry" />
        </mxCell>
        <mxCell id="EkXWdGJMB2mvaw71ddWZ-3" value="" style="shape=mxgraph.cisco.computers_and_peripherals.web_browser;html=1;pointerEvents=1;dashed=0;fillColor=#036897;strokeColor=#ffffff;strokeWidth=2;verticalLabelPosition=bottom;verticalAlign=top;align=center;outlineConnect=0;" vertex="1" parent="1">
          <mxGeometry x="40" y="230" width="62" height="64" as="geometry" />
        </mxCell>
        <mxCell id="EkXWdGJMB2mvaw71ddWZ-4" value="&lt;font size=&quot;1&quot; color=&quot;#ff3333&quot; style=&quot;&quot;&gt;&lt;b style=&quot;font-size: 26px;&quot;&gt;Browser&lt;/b&gt;&lt;/font&gt;" style="text;html=1;align=center;verticalAlign=middle;whiteSpace=wrap;rounded=0;fillColor=#f8cecc;strokeColor=#b85450;" vertex="1" parent="1">
          <mxGeometry x="50" y="260" width="105" height="40" as="geometry" />
        </mxCell>
        <mxCell id="EkXWdGJMB2mvaw71ddWZ-6" value="&lt;font style=&quot;font-size: 17px;&quot;&gt;&lt;b&gt;Request:&lt;/b&gt;&lt;/font&gt;&lt;div&gt;&lt;font style=&quot;font-size: 17px;&quot;&gt;&lt;b&gt;&amp;nbsp;www.google.com&lt;/b&gt;&lt;/font&gt;&lt;/div&gt;" style="text;html=1;align=center;verticalAlign=middle;whiteSpace=wrap;rounded=0;fillColor=#dae8fc;strokeColor=#6c8ebf;" vertex="1" parent="1">
          <mxGeometry x="17.5" y="360" width="170" height="40" as="geometry" />
        </mxCell>
        <mxCell id="EkXWdGJMB2mvaw71ddWZ-7" value="" style="outlineConnect=0;dashed=0;verticalLabelPosition=bottom;verticalAlign=top;align=center;html=1;shape=mxgraph.aws3.redis;fillColor=#2E73B8;gradientColor=none;" vertex="1" parent="1">
          <mxGeometry x="470" y="237" width="60" height="63" as="geometry" />
        </mxCell>
        <mxCell id="EkXWdGJMB2mvaw71ddWZ-12" style="edgeStyle=orthogonalEdgeStyle;rounded=0;orthogonalLoop=1;jettySize=auto;html=1;strokeWidth=5;exitX=1;exitY=0.25;exitDx=0;exitDy=0;" edge="1" parent="1" source="EkXWdGJMB2mvaw71ddWZ-8" target="EkXWdGJMB2mvaw71ddWZ-11">
          <mxGeometry relative="1" as="geometry" />
        </mxCell>
        <mxCell id="EkXWdGJMB2mvaw71ddWZ-16" style="edgeStyle=orthogonalEdgeStyle;rounded=0;orthogonalLoop=1;jettySize=auto;html=1;entryX=0.5;entryY=0;entryDx=0;entryDy=0;endSize=12;startSize=10;strokeWidth=5;" edge="1" parent="1" source="EkXWdGJMB2mvaw71ddWZ-8" target="EkXWdGJMB2mvaw71ddWZ-14">
          <mxGeometry relative="1" as="geometry" />
        </mxCell>
        <mxCell id="EkXWdGJMB2mvaw71ddWZ-8" value="" style="shape=image;html=1;verticalAlign=top;verticalLabelPosition=bottom;labelBackgroundColor=#ffffff;imageAspect=0;aspect=fixed;image=https://cdn4.iconfinder.com/data/icons/success-filloutline/64/brain-think-brainstorm-creative-idea-128.png" vertex="1" parent="1">
          <mxGeometry x="510" y="180" width="108" height="108" as="geometry" />
        </mxCell>
        <mxCell id="EkXWdGJMB2mvaw71ddWZ-9" style="edgeStyle=orthogonalEdgeStyle;rounded=0;orthogonalLoop=1;jettySize=auto;html=1;entryX=0;entryY=0.5;entryDx=0;entryDy=0;entryPerimeter=0;strokeWidth=6;" edge="1" parent="1" source="EkXWdGJMB2mvaw71ddWZ-4" target="EkXWdGJMB2mvaw71ddWZ-7">
          <mxGeometry relative="1" as="geometry">
            <Array as="points">
              <mxPoint x="450" y="260" />
              <mxPoint x="450" y="240" />
              <mxPoint x="470" y="240" />
            </Array>
          </mxGeometry>
        </mxCell>
        <mxCell id="EkXWdGJMB2mvaw71ddWZ-38" style="edgeStyle=orthogonalEdgeStyle;rounded=0;orthogonalLoop=1;jettySize=auto;html=1;entryX=1;entryY=0.5;entryDx=0;entryDy=0;strokeWidth=6;" edge="1" parent="1" source="EkXWdGJMB2mvaw71ddWZ-10" target="EkXWdGJMB2mvaw71ddWZ-35">
          <mxGeometry relative="1" as="geometry">
            <Array as="points">
              <mxPoint x="510" y="170" />
              <mxPoint x="540" y="170" />
              <mxPoint x="540" y="125" />
            </Array>
          </mxGeometry>
        </mxCell>
        <mxCell id="EkXWdGJMB2mvaw71ddWZ-10" value="&lt;font style=&quot;font-size: 21px;&quot;&gt;&lt;b&gt;Route&lt;/b&gt;&lt;/font&gt;" style="text;html=1;align=center;verticalAlign=middle;whiteSpace=wrap;rounded=0;fillColor=#dae8fc;strokeColor=#6c8ebf;" vertex="1" parent="1">
          <mxGeometry x="470" y="190" width="80" height="60" as="geometry" />
        </mxCell>
        <mxCell id="EkXWdGJMB2mvaw71ddWZ-11" value="&lt;font style=&quot;font-size: 23px;&quot;&gt;&lt;b&gt;Call back function&lt;/b&gt;&lt;/font&gt;" style="rounded=1;whiteSpace=wrap;html=1;fillColor=#fff2cc;strokeColor=#d6b656;" vertex="1" parent="1">
          <mxGeometry x="780" y="160" width="120" height="60" as="geometry" />
        </mxCell>
        <mxCell id="EkXWdGJMB2mvaw71ddWZ-13" value="" style="rounded=1;whiteSpace=wrap;html=1;" vertex="1" parent="1">
          <mxGeometry x="318" y="350" width="492" height="270" as="geometry" />
        </mxCell>
        <mxCell id="EkXWdGJMB2mvaw71ddWZ-23" style="edgeStyle=orthogonalEdgeStyle;rounded=0;orthogonalLoop=1;jettySize=auto;html=1;strokeWidth=7;" edge="1" parent="1" source="EkXWdGJMB2mvaw71ddWZ-14" target="EkXWdGJMB2mvaw71ddWZ-17">
          <mxGeometry relative="1" as="geometry" />
        </mxCell>
        <mxCell id="EkXWdGJMB2mvaw71ddWZ-25" style="edgeStyle=orthogonalEdgeStyle;rounded=0;orthogonalLoop=1;jettySize=auto;html=1;strokeWidth=6;" edge="1" parent="1" source="EkXWdGJMB2mvaw71ddWZ-14" target="EkXWdGJMB2mvaw71ddWZ-24">
          <mxGeometry relative="1" as="geometry" />
        </mxCell>
        <mxCell id="EkXWdGJMB2mvaw71ddWZ-33" style="edgeStyle=orthogonalEdgeStyle;rounded=0;orthogonalLoop=1;jettySize=auto;html=1;strokeWidth=7;" edge="1" parent="1" source="EkXWdGJMB2mvaw71ddWZ-14" target="EkXWdGJMB2mvaw71ddWZ-28">
          <mxGeometry relative="1" as="geometry" />
        </mxCell>
        <mxCell id="EkXWdGJMB2mvaw71ddWZ-14" value="&lt;font style=&quot;font-size: 22px;&quot;&gt;&lt;b&gt;Controller&lt;/b&gt;&lt;/font&gt;" style="rounded=1;whiteSpace=wrap;html=1;fillColor=#d5e8d4;strokeColor=#82b366;" vertex="1" parent="1">
          <mxGeometry x="498" y="355" width="120" height="55" as="geometry" />
        </mxCell>
        <mxCell id="EkXWdGJMB2mvaw71ddWZ-22" style="edgeStyle=orthogonalEdgeStyle;rounded=0;orthogonalLoop=1;jettySize=auto;html=1;strokeWidth=5;" edge="1" parent="1">
          <mxGeometry relative="1" as="geometry">
            <mxPoint x="370" y="485" as="sourcePoint" />
            <mxPoint x="498" y="400" as="targetPoint" />
            <Array as="points">
              <mxPoint x="370" y="486" />
              <mxPoint x="499" y="486" />
            </Array>
          </mxGeometry>
        </mxCell>
        <mxCell id="EkXWdGJMB2mvaw71ddWZ-17" value="" style="image;html=1;image=img/lib/clip_art/computers/Database_128x128.png" vertex="1" parent="1">
          <mxGeometry x="350" y="450" width="80" height="80" as="geometry" />
        </mxCell>
        <mxCell id="EkXWdGJMB2mvaw71ddWZ-32" style="edgeStyle=orthogonalEdgeStyle;rounded=0;orthogonalLoop=1;jettySize=auto;html=1;entryX=1;entryY=0.5;entryDx=0;entryDy=0;strokeWidth=6;" edge="1" parent="1" source="EkXWdGJMB2mvaw71ddWZ-24" target="EkXWdGJMB2mvaw71ddWZ-14">
          <mxGeometry relative="1" as="geometry">
            <Array as="points">
              <mxPoint x="734" y="360" />
              <mxPoint x="618" y="360" />
            </Array>
          </mxGeometry>
        </mxCell>
        <mxCell id="EkXWdGJMB2mvaw71ddWZ-24" value="" style="shape=image;html=1;verticalAlign=top;verticalLabelPosition=bottom;labelBackgroundColor=#ffffff;imageAspect=0;aspect=fixed;image=https://cdn3.iconfinder.com/data/icons/forall/1062/window-128.png" vertex="1" parent="1">
          <mxGeometry x="670" y="390" width="128" height="128" as="geometry" />
        </mxCell>
        <mxCell id="EkXWdGJMB2mvaw71ddWZ-26" value="&lt;font style=&quot;font-size: 22px;&quot;&gt;&lt;b&gt;View&lt;/b&gt;&lt;/font&gt;" style="text;html=1;align=center;verticalAlign=middle;whiteSpace=wrap;rounded=0;fillColor=#f8cecc;strokeColor=#b85450;" vertex="1" parent="1">
          <mxGeometry x="730" y="390" width="80" height="50" as="geometry" />
        </mxCell>
        <mxCell id="EkXWdGJMB2mvaw71ddWZ-31" style="edgeStyle=orthogonalEdgeStyle;rounded=0;orthogonalLoop=1;jettySize=auto;html=1;strokeWidth=7;" edge="1" parent="1" source="EkXWdGJMB2mvaw71ddWZ-27" target="EkXWdGJMB2mvaw71ddWZ-2">
          <mxGeometry relative="1" as="geometry" />
        </mxCell>
        <mxCell id="EkXWdGJMB2mvaw71ddWZ-27" value="" style="points=[[0.03,0.03,0],[0.5,0,0],[0.97,0.03,0],[1,0.4,0],[0.97,0.745,0],[0.5,1,0],[0.03,0.745,0],[0,0.4,0]];verticalLabelPosition=bottom;sketch=0;html=1;verticalAlign=top;aspect=fixed;align=center;pointerEvents=1;shape=mxgraph.cisco19.workstation;fillColor=#005073;strokeColor=none;" vertex="1" parent="1">
          <mxGeometry x="503" y="530" width="95" height="76" as="geometry" />
        </mxCell>
        <mxCell id="EkXWdGJMB2mvaw71ddWZ-28" value="&lt;font style=&quot;font-size: 21px;&quot;&gt;&lt;b style=&quot;&quot;&gt;Http:&lt;/b&gt;&lt;/font&gt;&lt;div style=&quot;font-size: 21px;&quot;&gt;&lt;font style=&quot;font-size: 21px;&quot;&gt;&lt;b style=&quot;&quot;&gt;r&lt;span style=&quot;background-color: initial;&quot;&gt;esponse&lt;/span&gt;&lt;/b&gt;&lt;/font&gt;&lt;/div&gt;" style="rhombus;whiteSpace=wrap;html=1;fillColor=#e1d5e7;strokeColor=#9673a6;" vertex="1" parent="1">
          <mxGeometry x="480" y="480" width="145" height="100" as="geometry" />
        </mxCell>
        <mxCell id="EkXWdGJMB2mvaw71ddWZ-39" style="edgeStyle=orthogonalEdgeStyle;rounded=0;orthogonalLoop=1;jettySize=auto;html=1;strokeWidth=8;" edge="1" parent="1" source="EkXWdGJMB2mvaw71ddWZ-34" target="EkXWdGJMB2mvaw71ddWZ-3">
          <mxGeometry relative="1" as="geometry">
            <Array as="points">
              <mxPoint x="176" y="173" />
              <mxPoint x="176" y="170" />
              <mxPoint x="71" y="170" />
            </Array>
          </mxGeometry>
        </mxCell>
        <mxCell id="EkXWdGJMB2mvaw71ddWZ-34" value="" style="shape=image;html=1;verticalAlign=top;verticalLabelPosition=bottom;labelBackgroundColor=#ffffff;imageAspect=0;aspect=fixed;image=https://cdn0.iconfinder.com/data/icons/call-center-and-service/32/36-404_error-128.png;imageBackground=none;" vertex="1" parent="1">
          <mxGeometry x="240" y="122" width="128" height="128" as="geometry" />
        </mxCell>
        <mxCell id="EkXWdGJMB2mvaw71ddWZ-35" value="&lt;font style=&quot;font-size: 23px;&quot;&gt;&lt;b&gt;false&lt;/b&gt;&lt;/font&gt;&lt;div style=&quot;font-size: 23px;&quot;&gt;&lt;font style=&quot;font-size: 23px;&quot;&gt;&lt;b&gt;(Not Found)&lt;/b&gt;&lt;/font&gt;&lt;/div&gt;" style="text;html=1;align=center;verticalAlign=middle;whiteSpace=wrap;rounded=0;fillColor=#a20025;fontColor=#ffffff;strokeColor=#6F0000;" vertex="1" parent="1">
          <mxGeometry x="338" y="100" width="160" height="50" as="geometry" />
        </mxCell>
        <mxCell id="EkXWdGJMB2mvaw71ddWZ-40" value="&lt;font style=&quot;font-size: 21px;&quot;&gt;&lt;b&gt;TRUE (FOUND)&lt;/b&gt;&lt;/font&gt;" style="text;html=1;align=center;verticalAlign=middle;whiteSpace=wrap;rounded=0;fillColor=#d5e8d4;strokeColor=#82b366;" vertex="1" parent="1">
          <mxGeometry x="570" y="228" width="180" height="60" as="geometry" />
        </mxCell>
        <mxCell id="EkXWdGJMB2mvaw71ddWZ-43" value="&lt;div style=&quot;color: #cccccc;background-color: #1f1f1f;font-family: Consolas, &#39;Courier New&#39;, monospace;font-weight: normal;font-size: 14px;line-height: 19px;white-space: pre;&quot;&gt;&lt;div&gt;&lt;span style=&quot;color: #4ec9b0;&quot;&gt;Route&lt;/span&gt;&lt;span style=&quot;color: #d4d4d4;&quot;&gt;::&lt;/span&gt;&lt;span style=&quot;color: #dcdcaa;&quot;&gt;get&lt;/span&gt;&lt;span style=&quot;color: #d4d4d4;&quot;&gt;(&lt;/span&gt;&lt;span style=&quot;color: #ce9178;&quot;&gt;&#39;/&#39;&lt;/span&gt;&lt;span style=&quot;color: #d4d4d4;&quot;&gt;, &lt;/span&gt;&lt;span style=&quot;color: #569cd6;&quot;&gt;function&lt;/span&gt;&lt;span style=&quot;color: #d4d4d4;&quot;&gt; () {&lt;/span&gt;&lt;/div&gt;&lt;div&gt;&lt;span style=&quot;color: #d4d4d4;&quot;&gt;&amp;nbsp; &amp;nbsp; &lt;/span&gt;&lt;span style=&quot;color: #c586c0;&quot;&gt;return&lt;/span&gt;&lt;span style=&quot;color: #d4d4d4;&quot;&gt; &lt;/span&gt;&lt;span style=&quot;color: #dcdcaa;&quot;&gt;view&lt;/span&gt;&lt;span style=&quot;color: #d4d4d4;&quot;&gt;(&lt;/span&gt;&lt;span style=&quot;color: #ce9178;&quot;&gt;&#39;welcome&#39;&lt;/span&gt;&lt;span style=&quot;color: #d4d4d4;&quot;&gt;);&lt;/span&gt;&lt;/div&gt;&lt;div&gt;&lt;span style=&quot;color: #d4d4d4;&quot;&gt;});&lt;/span&gt;&lt;/div&gt;&lt;div&gt;&lt;span style=&quot;color: #4ec9b0;&quot;&gt;Route&lt;/span&gt;&lt;span style=&quot;color: #d4d4d4;&quot;&gt;::&lt;/span&gt;&lt;span style=&quot;color: #dcdcaa;&quot;&gt;get&lt;/span&gt;&lt;span style=&quot;color: #d4d4d4;&quot;&gt;(&lt;/span&gt;&lt;span style=&quot;color: #ce9178;&quot;&gt;&#39;/users&#39;&lt;/span&gt;&lt;span style=&quot;color: #d4d4d4;&quot;&gt;,[&lt;/span&gt;&lt;span style=&quot;color: #4ec9b0;&quot;&gt;StudentController&lt;/span&gt;&lt;span style=&quot;color: #d4d4d4;&quot;&gt;::&lt;/span&gt;&lt;span style=&quot;color: #569cd6;&quot;&gt;class&lt;/span&gt;&lt;span style=&quot;color: #d4d4d4;&quot;&gt;,index]);&lt;/span&gt;&lt;/div&gt;&lt;br&gt;&lt;/div&gt;" style="text;whiteSpace=wrap;html=1;" vertex="1" parent="1">
          <mxGeometry x="540" y="12" width="420" height="110" as="geometry" />
        </mxCell>
        <mxCell id="EkXWdGJMB2mvaw71ddWZ-44" value="&lt;font style=&quot;font-size: 18px;&quot;&gt;&lt;b&gt;DataBase&lt;/b&gt;&lt;/font&gt;" style="text;html=1;align=center;verticalAlign=middle;whiteSpace=wrap;rounded=0;fillColor=#f8cecc;strokeColor=#b85450;" vertex="1" parent="1">
          <mxGeometry x="320" y="390" width="110" height="40" as="geometry" />
        </mxCell>
        <mxCell id="EkXWdGJMB2mvaw71ddWZ-45" value="&lt;font style=&quot;font-size: 23px;&quot;&gt;&lt;b&gt;user&lt;/b&gt;&lt;/font&gt;" style="text;html=1;align=center;verticalAlign=middle;whiteSpace=wrap;rounded=0;fillColor=#f8cecc;strokeColor=#b85450;" vertex="1" parent="1">
          <mxGeometry x="90" y="463" width="62.5" height="40" as="geometry" />
        </mxCell>
        <mxCell id="EkXWdGJMB2mvaw71ddWZ-46" value="" style="rounded=1;whiteSpace=wrap;html=1;" vertex="1" parent="1">
          <mxGeometry x="160" y="780" width="510" height="210" as="geometry" />
        </mxCell>
        <mxCell id="EkXWdGJMB2mvaw71ddWZ-47" value="&lt;font style=&quot;font-size: 23px;&quot;&gt;&lt;b&gt;Project&lt;/b&gt;&lt;/font&gt;" style="text;html=1;align=center;verticalAlign=middle;whiteSpace=wrap;rounded=0;fillColor=#f8cecc;strokeColor=#b85450;" vertex="1" parent="1">
          <mxGeometry x="270" y="760" width="140" height="60" as="geometry" />
        </mxCell>
        <mxCell id="EkXWdGJMB2mvaw71ddWZ-48" value="" style="image;html=1;image=img/lib/clip_art/general/Full_Folder_128x128.png" vertex="1" parent="1">
          <mxGeometry x="190" y="810" width="80" height="80" as="geometry" />
        </mxCell>
        <mxCell id="EkXWdGJMB2mvaw71ddWZ-49" value="" style="image;html=1;image=img/lib/clip_art/general/Full_Folder_128x128.png" vertex="1" parent="1">
          <mxGeometry x="470" y="800" width="80" height="80" as="geometry" />
        </mxCell>
        <mxCell id="EkXWdGJMB2mvaw71ddWZ-50" value="" style="image;html=1;image=img/lib/clip_art/general/Full_Folder_128x128.png" vertex="1" parent="1">
          <mxGeometry x="490" y="845" width="80" height="80" as="geometry" />
        </mxCell>
        <mxCell id="EkXWdGJMB2mvaw71ddWZ-51" value="" style="image;html=1;image=img/lib/clip_art/general/Empty_Folder_128x128.png" vertex="1" parent="1">
          <mxGeometry x="498" y="890" width="80" height="80" as="geometry" />
        </mxCell>
        <mxCell id="EkXWdGJMB2mvaw71ddWZ-52" value="&lt;font style=&quot;font-size: 17px;&quot;&gt;&lt;b&gt;Routes&lt;/b&gt;&lt;/font&gt;" style="text;html=1;align=center;verticalAlign=middle;whiteSpace=wrap;rounded=0;fillColor=#dae8fc;strokeColor=#6c8ebf;" vertex="1" parent="1">
          <mxGeometry x="160" y="800" width="80" height="50" as="geometry" />
        </mxCell>
        <mxCell id="EkXWdGJMB2mvaw71ddWZ-53" value="" style="image;html=1;image=img/lib/clip_art/general/Full_Folder_128x128.png" vertex="1" parent="1">
          <mxGeometry x="180" y="880" width="80" height="80" as="geometry" />
        </mxCell>
        <mxCell id="EkXWdGJMB2mvaw71ddWZ-54" value="&lt;font style=&quot;font-size: 19px;&quot;&gt;&lt;b&gt;web&lt;/b&gt;&lt;/font&gt;" style="text;html=1;align=center;verticalAlign=middle;whiteSpace=wrap;rounded=0;fillColor=#dae8fc;strokeColor=#6c8ebf;" vertex="1" parent="1">
          <mxGeometry x="240" y="905" width="60" height="30" as="geometry" />
        </mxCell>
        <mxCell id="EkXWdGJMB2mvaw71ddWZ-55" value="&lt;font style=&quot;font-size: 16px;&quot;&gt;&lt;b&gt;resources&lt;/b&gt;&lt;/font&gt;" style="text;html=1;align=center;verticalAlign=middle;whiteSpace=wrap;rounded=0;fillColor=#fff2cc;strokeColor=#d6b656;" vertex="1" parent="1">
          <mxGeometry x="550" y="810" width="100" height="40" as="geometry" />
        </mxCell>
        <mxCell id="EkXWdGJMB2mvaw71ddWZ-56" value="&lt;font style=&quot;font-size: 17px;&quot;&gt;&lt;b&gt;views&lt;/b&gt;&lt;/font&gt;" style="text;html=1;align=center;verticalAlign=middle;whiteSpace=wrap;rounded=0;fillColor=#e1d5e7;strokeColor=#9673a6;" vertex="1" parent="1">
          <mxGeometry x="558" y="860" width="92" height="40" as="geometry" />
        </mxCell>
        <mxCell id="EkXWdGJMB2mvaw71ddWZ-57" value="&lt;font style=&quot;font-size: 16px;&quot;&gt;&lt;b&gt;blade&lt;/b&gt;&lt;/font&gt;" style="text;html=1;align=center;verticalAlign=middle;whiteSpace=wrap;rounded=0;fillColor=#ffe6cc;strokeColor=#d79b00;" vertex="1" parent="1">
          <mxGeometry x="578" y="910" width="60" height="30" as="geometry" />
        </mxCell>
      </root>
    </mxGraphModel>
  </diagram>
</mxfile>
